<svg xmlns="http://www.w3.org/2000/svg" viewBox="0 0 100 100" fill="none">
  <rect width="100" height="100" rx="22" fill="#0d4a3a"/>
  <g opacity="0.25">
    <path d="M50 10 L55 45 L90 50 L55 55 L50 90 L45 55 L10 50 L45 45 Z" fill="#c9922a"/>
  </g>
  <circle cx="50" cy="50" r="28" stroke="#c9922a" stroke-width="1.5" fill="none" opacity="0.6"/>
  <path d="M28 68 L38 32 L44 32 L50 52" stroke="#c9922a" stroke-width="3.5" stroke-linecap="round" stroke-linejoin="round" fill="none"/>
  <path d="M30.5 57 L47 57" stroke="#c9922a" stroke-width="3" stroke-linecap="round" fill="none"/>
  <path d="M50 52 L56 32 L62 32 L72 68" stroke="#c9922a" stroke-width="3.5" stroke-linecap="round" stroke-linejoin="round" fill="none"/>
  <path d="M53 57 L69.5 57" stroke="#c9922a" stroke-width="3" stroke-linecap="round" fill="none"/>
  <path d="M46 20 A8 8 0 1 1 54 20 A5 5 0 1 0 46 20" fill="#c9922a" opacity="0.7"/>
</svg>
